<svg id="Layer_1" data-name="Layer 1" xmlns="http://www.w3.org/2000/svg" viewBox="0 0 447.2 109.19"><defs><style>.cls-1{fill:#1e1e1c;}</style></defs><path class="cls-1" d="M74,400.09a41.81,41.81,0,0,1,4.4-19,44.63,44.63,0,0,1,12.83-15.32,49.79,49.79,0,0,1,13.56-7.43,43.38,43.38,0,0,1,14.67-2.59,42.46,42.46,0,0,1,18.21,4.12,46.79,46.79,0,0,1,15.39,11.65c7.17,8.15,10.76,14.44,10.76,27.82a41.57,41.57,0,0,1-2.81,15.1,42.94,42.94,0,0,1-8.19,13.27,46,46,0,0,1-15.61,11.56,45.47,45.47,0,0,1-37.43.12,44.31,44.31,0,0,1-15.27-11.25,40.72,40.72,0,0,1-7.79-12.93A42.41,42.41,0,0,1,74,400.09Zm14.78.91q0,17.73,9.66,29.9a28.7,28.7,0,0,0,9.19,7.92,24.4,24.4,0,0,0,11.22,2.48,24.77,24.77,0,0,0,11.27-2.45,28.68,28.68,0,0,0,9.26-8q9.65-12.22,9.65-30.14a63.93,63.93,0,0,0-2.66-18.62,44.59,44.59,0,0,0-7.48-14.89,24.69,24.69,0,0,0-8.71-7.31,26,26,0,0,0-11.33-2.29,25.79,25.79,0,0,0-11.22,2.26,25.34,25.34,0,0,0-8.76,7.34,43.49,43.49,0,0,0-7.46,14.86A65.83,65.83,0,0,0,88.82,401Z" transform="translate(-74.04 -355.39)"/><path class="cls-1" d="M172,357.59l17.6-2.2v68.14l.06,4.64a26.9,26.9,0,0,0,.49,6.08,6.4,6.4,0,0,0,1.89,3.2c1.15,1.1,3.24,1.93,6.3,2.5v1.29h-27V440a15.72,15.72,0,0,0,5.26-1.37,6.29,6.29,0,0,0,2.56-3,13.08,13.08,0,0,0,1-4.24c.18-1.89.27-4.63.27-8.2v-47.9a86.84,86.84,0,0,0-.3-8.78,9.58,9.58,0,0,0-1.35-4.15,6.2,6.2,0,0,0-2.5-2.44,11.52,11.52,0,0,0-4.22-.92Z" transform="translate(-74.04 -355.39)"/><path class="cls-1" d="M250.66,441.24H229.14v-1.35a9.54,9.54,0,0,0,3.27-1,4.54,4.54,0,0,0,2.17-4.15q0-2.44-2.27-8.73L223,399.87l-8.1,22q-3,8.25-3,11.66a6.45,6.45,0,0,0,1.39,4.36,6.17,6.17,0,0,0,4,2v1.35H201.52v-1.35a13.36,13.36,0,0,0,3.52-1.52,8.3,8.3,0,0,0,2.19-2.51q1.62-2.69,5.11-12l16.08-43q2.88-7.69,4.66-10a9.23,9.23,0,0,1,7.6-3.85,8.18,8.18,0,0,1,4.74,1.25,3.83,3.83,0,0,1,1.8,3.27,3.23,3.23,0,0,1-1.05,2.53,3.93,3.93,0,0,1-2.76.95,8.17,8.17,0,0,1-3.32-.85c-1.22-.53-2-.86-2.35-1a3.86,3.86,0,0,0-1.24-.18q-3.44,0-5.59,5.7l-1.72,4.66a14.36,14.36,0,0,0-1.1,4.54c0,1.51.7,4.13,2.1,7.88l11.49,30.45,1.66,4.39q1.5,3.92,2.33,5.56a8,8,0,0,0,1.66,2.38,6.33,6.33,0,0,0,3.33,1.4Z" transform="translate(-74.04 -355.39)"/><path class="cls-1" d="M271.39,388.38a48.17,48.17,0,0,1,1.41,8.5,27.73,27.73,0,0,1,8.65-6.3,23.75,23.75,0,0,1,10-2.2,15.34,15.34,0,0,1,9.59,2.94,26.89,26.89,0,0,1,5.31,6.17,33.24,33.24,0,0,1,9.35-6.91,23.77,23.77,0,0,1,10.15-2.2c4.88,0,8.87,1.34,11.94,4a13.19,13.19,0,0,1,4.61,10.47v20.69l.07,4.64a27.55,27.55,0,0,0,.48,6.07,6.54,6.54,0,0,0,1.84,3.2q1.77,1.65,6.35,2.5v1.29h-27V440a15.37,15.37,0,0,0,5.22-1.37,6.68,6.68,0,0,0,2.6-3,13.46,13.46,0,0,0,.94-4.24q.28-2.83.28-8.15V411.52a79.84,79.84,0,0,0-.43-9.89,15.08,15.08,0,0,0-1.64-5.31c-1.91-3.45-5.21-5.19-9.88-5.19q-7.56,0-11,5.62-3,4.81-3,15v11.78l.06,4.64a27.41,27.41,0,0,0,.49,6.07,6.6,6.6,0,0,0,1.83,3.2q1.71,1.65,6.36,2.5v1.29H289V440a15.37,15.37,0,0,0,5.23-1.37,6.61,6.61,0,0,0,2.59-3,13.15,13.15,0,0,0,.95-4.24c.18-1.89.28-4.61.28-8.15V411.88a85.9,85.9,0,0,0-.46-10.46,13.79,13.79,0,0,0-1.74-5.4,9.23,9.23,0,0,0-3.78-3.45,11.74,11.74,0,0,0-5.49-1.25,13.5,13.5,0,0,0-6.52,1.65,12.76,12.76,0,0,0-4.82,4.45,17,17,0,0,0-2.34,6,47.55,47.55,0,0,0-.7,9.06v11.17l.06,4.52a26.8,26.8,0,0,0,.49,6.07,6.4,6.4,0,0,0,1.89,3.2q1.71,1.65,6.3,2.5v1.29h-27V440a15.65,15.65,0,0,0,5.25-1.37,6.25,6.25,0,0,0,2.57-3,13.28,13.28,0,0,0,.95-4.23q.27-2.83.27-8.2V408.08a86.87,86.87,0,0,0-.3-8.81,9.54,9.54,0,0,0-1.35-4.11,6.42,6.42,0,0,0-2.5-2.47,11.06,11.06,0,0,0-4.22-.95v-1.28Z" transform="translate(-74.04 -355.39)"/><path class="cls-1" d="M372.7,436.1l.06,11.22v4.21a26.86,26.86,0,0,0,.49,6.07,6.85,6.85,0,0,0,1.89,3.26c1.15,1.1,3.24,1.9,6.3,2.43v1.29h-27v-1.29a16.36,16.36,0,0,0,5.26-1.34,6.11,6.11,0,0,0,2.56-3,13.23,13.23,0,0,0,.95-4.27c.18-1.92.27-4.64.27-8.18V404.32q0-6.9-2.16-9.83c-1.45-1.95-3.88-2.93-7.31-2.93V390l17.85-2.5a24.68,24.68,0,0,1,.67,5.38v1.16A34.67,34.67,0,0,1,381,389.7a27.06,27.06,0,0,1,8.6-1.32,23.25,23.25,0,0,1,22.27,14.42,29.86,29.86,0,0,1,2.26,11.74,31.84,31.84,0,0,1-2.41,12.4,24.82,24.82,0,0,1-23.4,15.4,20.93,20.93,0,0,1-7.9-1.35A31.73,31.73,0,0,1,372.7,436.1Zm0-20.28a82.6,82.6,0,0,0,.73,12.71,16.47,16.47,0,0,0,2.62,6.9,13,13,0,0,0,10.1,5.13q6.45,0,11.26-6.11a26.42,26.42,0,0,0,4.5-8.67,34.32,34.32,0,0,0,1.59-10.45A36,36,0,0,0,402,405a27.14,27.14,0,0,0-4.17-8.64q-4.56-6.24-11.13-6.23a12.46,12.46,0,0,0-6.09,1.58,12.26,12.26,0,0,0-4.56,4.34,19.3,19.3,0,0,0-2.62,7.3A81.4,81.4,0,0,0,372.7,415.82Z" transform="translate(-74.04 -355.39)"/><path class="cls-1" d="M463.56,442.34a36.39,36.39,0,0,1-.8-7.63,24.71,24.71,0,0,1-18.08,7.63q-7.64,0-12.28-3.73c-3-2.43-4.52-5.9-4.52-10.37V407l-.07-4.64a27.17,27.17,0,0,0-.48-6,7,7,0,0,0-1.84-3.24c-1.18-1.09-3.3-1.91-6.35-2.43V389.3h18v31a72.8,72.8,0,0,0,.46,9.68,13.8,13.8,0,0,0,1.68,5.17,9.15,9.15,0,0,0,3.83,3.27,13,13,0,0,0,5.62,1.19,15.4,15.4,0,0,0,6.4-1.35,11.49,11.49,0,0,0,4.69-3.66,12.91,12.91,0,0,0,2.34-5.49,62.55,62.55,0,0,0,.58-10.25v-12l-.06-4.52a28,28,0,0,0-.46-6,6.47,6.47,0,0,0-1.86-3.24c-1.14-1.09-3.26-1.91-6.35-2.43V389.3h18v33.14a76.13,76.13,0,0,0,.34,8.82,10.47,10.47,0,0,0,1.31,4.12,6.85,6.85,0,0,0,2.57,2.47,11,11,0,0,0,4.21.94v1.29Z" transform="translate(-74.04 -355.39)"/><path class="cls-1" d="M521.24,441.24V424h-1A34,34,0,0,1,516,434.09q-4.68,6.9-11,6.9a10.07,10.07,0,0,1-6.64-2.32,9,9,0,0,1-3.05-7.27,10.7,10.7,0,0,1,2.2-6.72,13.79,13.79,0,0,1,3.08-2.81,67.15,67.15,0,0,1,6.24-3.61q7.68-4.1,10.24-6.84a12.84,12.84,0,0,0,3.66-9,13.44,13.44,0,0,0-3.67-9.47,14.54,14.54,0,0,0-11.18-4.53,15.2,15.2,0,0,0-5.8,1.1l-2.08.92a4.85,4.85,0,0,1-1.71.37c-.78,0-1.51-.61-2.2-1.84h-1.22l-.68,13.87h1.29a28.29,28.29,0,0,1,1.43-4.7,13.77,13.77,0,0,1,2.16-3.42,14.09,14.09,0,0,1,4.39-3.64,10.59,10.59,0,0,1,4.94-1.31,7.83,7.83,0,0,1,5.82,2.47,8.45,8.45,0,0,1,2.4,6.08,7.91,7.91,0,0,1-2.16,5.41,19.68,19.68,0,0,1-6.68,4.43l-6.46,2.93a21.33,21.33,0,0,0-8.66,6.54,15.19,15.19,0,0,0-2.86,9.23A14.53,14.53,0,0,0,492,437.45a16.33,16.33,0,0,0,12.22,4.89,22.81,22.81,0,0,0,8.19-1.59c1.79-.69,2.87-1.09,3.24-1.19a4.94,4.94,0,0,1,1.4-.16,3.54,3.54,0,0,1,3.24,1.84Z" transform="translate(-74.04 -355.39)"/><circle class="cls-1" cx="432.08" cy="39.94" r="1.59"/><circle class="cls-1" cx="431.77" cy="79.9" r="1.59"/></svg>