{
    "asset" : {
        "generator" : "Khronos glTF Blender I/O v3.4.49",
        "version" : "2.0"
    },
    "extensionsUsed" : [
        "KHR_materials_emissive_strength"
    ],
    "scene" : 0,
    "scenes" : [
        {
            "name" : "Scene",
            "nodes" : [
                0,
                1
            ]
        }
    ],
    "nodes" : [
        {
            "mesh" : 0,
            "name" : "Earth.001"
        },
        {
            "mesh" : 1,
            "name" : "Earth"
        }
    ],
    "materials" : [
        {
            "alphaCutoff" : 0.495555579662323,
            "alphaMode" : "MASK",
            "doubleSided" : true,
            "emissiveFactor" : [
                1,
                1,
                1
            ],
            "emissiveTexture" : {
                "index" : 0
            },
            "extensions" : {
                "KHR_materials_emissive_strength" : {
                    "emissiveStrength" : 37.89999008178711
                }
            },
            "name" : "Earth",
            "pbrMetallicRoughness" : {
                "baseColorFactor" : [
                    0,
                    0,
                    0,
                    1
                ]
            }
        },
        {
            "alphaCutoff" : 0.495555579662323,
            "alphaMode" : "MASK",
            "doubleSided" : true,
            "emissiveFactor" : [
                0.19999313354492188,
                0.19999313354492188,
                0.19999313354492188
            ],
            "name" : "Grid",
            "pbrMetallicRoughness" : {
                "baseColorFactor" : [
                    0,
                    0,
                    0,
                    1
                ]
            }
        }
    ],
    "meshes" : [
        {
            "name" : "Sphere",
            "primitives" : [
                {
                    "attributes" : {
                        "POSITION" : 0,
                        "TEXCOORD_0" : 1,
                        "NORMAL" : 2
                    },
                    "indices" : 3,
                    "material" : 0
                }
            ]
        },
        {
            "name" : "Sphere.001",
            "primitives" : [
                {
                    "attributes" : {
                        "POSITION" : 4,
                        "TEXCOORD_0" : 5,
                        "NORMAL" : 6
                    },
                    "indices" : 7,
                    "material" : 1
                }
            ]
        }
    ],
    "textures" : [
        {
            "sampler" : 0,
            "source" : 0
        }
    ],
    "images" : [
        {
            "mimeType" : "image/png",
            "name" : "earth_map2",
            "uri" : "textures/earth_map2.png"
        }
    ],
    "accessors" : [
        {
            "bufferView" : 0,
            "componentType" : 5126,
            "count" : 2141,
            "max" : [
                0.9872310161590576,
                1.9975757598876953,
                0.9872307181358337
            ],
            "min" : [
                -0.9872305393218994,
                0.002423482481390238,
                -0.9872310161590576
            ],
            "type" : "VEC3"
        },
        {
            "bufferView" : 1,
            "componentType" : 5126,
            "count" : 2141,
            "type" : "VEC2"
        },
        {
            "bufferView" : 2,
            "componentType" : 5126,
            "count" : 2141,
            "type" : "VEC3"
        },
        {
            "bufferView" : 3,
            "componentType" : 5123,
            "count" : 11904,
            "type" : "SCALAR"
        },
        {
            "bufferView" : 4,
            "componentType" : 5126,
            "count" : 3102,
            "max" : [
                1.0019997358322144,
                2.002000093460083,
                1.0019993782043457
            ],
            "min" : [
                -1.001999020576477,
                -0.0020000000949949026,
                -1.0019999742507935
            ],
            "type" : "VEC3"
        },
        {
            "bufferView" : 5,
            "componentType" : 5126,
            "count" : 3102,
            "type" : "VEC2"
        },
        {
            "bufferView" : 6,
            "componentType" : 5126,
            "count" : 3102,
            "type" : "VEC3"
        },
        {
            "bufferView" : 7,
            "componentType" : 5123,
            "count" : 23808,
            "type" : "SCALAR"
        }
    ],
    "bufferViews" : [
        {
            "buffer" : 0,
            "byteLength" : 25692,
            "byteOffset" : 0,
            "target" : 34962
        },
        {
            "buffer" : 0,
            "byteLength" : 17128,
            "byteOffset" : 25692,
            "target" : 34962
        },
        {
            "buffer" : 0,
            "byteLength" : 25692,
            "byteOffset" : 42820,
            "target" : 34962
        },
        {
            "buffer" : 0,
            "byteLength" : 23808,
            "byteOffset" : 68512,
            "target" : 34963
        },
        {
            "buffer" : 0,
            "byteLength" : 37224,
            "byteOffset" : 92320,
            "target" : 34962
        },
        {
            "buffer" : 0,
            "byteLength" : 24816,
            "byteOffset" : 129544,
            "target" : 34962
        },
        {
            "buffer" : 0,
            "byteLength" : 37224,
            "byteOffset" : 154360,
            "target" : 34962
        },
        {
            "buffer" : 0,
            "byteLength" : 47616,
            "byteOffset" : 191584,
            "target" : 34963
        }
    ],
    "samplers" : [
        {
            "magFilter" : 9729,
            "minFilter" : 9987
        }
    ],
    "buffers" : [
        {
            "byteLength" : 239200,
            "uri" : "holoplanet2.bin"
        }
    ]
}
