<svg xmlns="http://www.w3.org/2000/svg" xmlns:xlink="http://www.w3.org/1999/xlink" viewBox="0 0 44.14 54.13"><defs><style>.cls-1{fill:url(#linear-gradient);}.cls-2{fill:url(#linear-gradient-2);}</style><linearGradient id="linear-gradient" x1="4.5" y1="54.06" x2="4.5" y2="0.06" gradientUnits="userSpaceOnUse"><stop offset="0.07" stop-color="#e8bbb6"/><stop offset="0.31" stop-color="#e8bbb6"/><stop offset="0.39" stop-color="#c5bab1"/><stop offset="0.58" stop-color="#6cb8a3"/><stop offset="0.67" stop-color="#49b79e"/><stop offset="0.92" stop-color="#49b79e"/><stop offset="0.95" stop-color="#49b79e"/></linearGradient><linearGradient id="linear-gradient-2" x1="28.68" y1="54.13" x2="28.68" y2="0" xlink:href="#linear-gradient"/></defs><g id="Layer_2" data-name="Layer 2"><g id="Layer_1-2" data-name="Layer 1"><rect class="cls-1" y="0.06" width="9" height="54"/><path class="cls-2" d="M13.25,29.9c.06-1.29.46-3.77,1.25-4,2.95-.85,7.45.09,13.08-.41,6.48-.59,7.37-5.11,7.5-7.09.42-6.19.36-16.79.36-18.4l8.7.14c-.14,2.64.14,21.91-.17,23-1.41,5-4.82,6.68-5,7.78s4.89,3.2,4.83,9.67c0,.86.17,13.27.28,13.46s-8.55,0-8.55,0c-1.42-.94,1.16-11.77-2.28-15.47a11.16,11.16,0,0,0-6.86-3.39c-5.92-.4-11.09.81-12.42-1C13.51,33.48,13.13,32.47,13.25,29.9Z"/></g></g></svg>