<svg id="Layer_1" data-name="Layer 1" xmlns="http://www.w3.org/2000/svg" xmlns:xlink="http://www.w3.org/1999/xlink" viewBox="0 0 154.22 154.22"><defs><style>.cls-1{fill:#1d1e1b;stroke:#fff;stroke-miterlimit:10;stroke-width:1.76px;}.cls-2{fill:url(#linear-gradient);}.cls-3{fill:url(#linear-gradient-2);}</style><linearGradient id="linear-gradient" x1="46.07" y1="31.26" x2="46.07" y2="123.71" gradientUnits="userSpaceOnUse"><stop offset="0" stop-color="#195b9e"/><stop offset="1" stop-color="#5bba9a"/></linearGradient><linearGradient id="linear-gradient-2" x1="327.13" y1="359.19" x2="327.13" y2="453.86" xlink:href="#linear-gradient"/></defs><circle class="cls-1" cx="77.11" cy="77.11" r="76.23"/><rect class="cls-2" x="38.15" y="29.5" width="15.83" height="94.99"/><path class="cls-3" d="M300,411.53c.11-2.27.8-6.63,2.19-7,5.19-1.5,13.11.16,23-.74,11.39-1,13-9,13.19-12.46.74-10.89.64-29.53.64-32.37l15.3.25c-.24,4.64.23,38.54-.3,40.43-2.49,8.85-8.48,11.74-8.75,13.68-.29,2.15,8.6,5.62,8.51,17,0,1.51.29,23.35.48,23.67s-15.05,0-15.05,0c-2.49-1.66,2.06-20.71-4-27.21a19.65,19.65,0,0,0-12.07-6c-10.41-.71-19.5,1.42-21.85-1.76C300.42,417.83,299.76,416,300,411.53Z" transform="translate(-238.25 -329.43)"/></svg>